# xmcd
#
# Track frame offsets:
#	150
#	13957
#	28880
#	40912
#	53109
#	66693
#	78708
#	93039
#	106466
#	118225
#	128518
#	139247
#	156724
#	172606
#	179529
#	189519
#	201998
#
# Disc length: 2833 seconds
#
# Revision: 0
# Processed by: cddbd v1.4PL0 Copyright (c) Steve Scherf et al.
# Submitted via: dBpowerAMP V4.0
#
DISCID=fb0b0f11
DTITLE=Various Artist - Classic Country Hits CD 5
DYEAR=1900
DGENRE=Country
TTITLE0=Johnny Cash and June Carter Cash - If I Were A Carpenter
TTITLE1=Waylon Jennings - Luckenbach, Texas
TTITLE2=Tennessee Ernie Ford - Sixteen Tons
TTITLE3=Tammy Wynette - Stand By Your Man
TTITLE4=Emmylou Harris - Sweet Dreams
TTITLE5=Bobby Edwards - You're The Reason
TTITLE6=B.J. Thomas - America Is
TTITLE7=Charlie Rich - Behind Closed Doors
TTITLE8=Ray Price - Crazy Arms
TTITLE9=The Statler Brothers - Do You Know You Are My Sunshine
TTITLE10=Sonny James - Empty Arms
TTITLE11=Ricky Skaggs and Sharon White - Love Can't Ever Get Better Than This
TTITLE12=The Oak Ridge Boys - Sail Away
TTITLE13=Ricochet - The Star Spangled Banner
TTITLE14=Barbara Mandrell - Tonight My Baby's Coming Home
TTITLE15=Sly and Sal - Wishful Thinking
TTITLE16=Cowboy Copas - Alabam
EXTD=
EXTT0=
EXTT1=
EXTT2=
EXTT3=
EXTT4=
EXTT5=
EXTT6=
EXTT7=
EXTT8=
EXTT9=
EXTT10=
EXTT11=
EXTT12=
EXTT13=
EXTT14=
EXTT15=
EXTT16=
PLAYORDER=
